<?xml version="1.0" standalone="no"?>
<!DOCTYPE svg PUBLIC "-//W3C//DTD SVG 20010904//EN"
 "http://www.w3.org/TR/2001/REC-SVG-20010904/DTD/svg10.dtd">
<svg version="1.0" xmlns="http://www.w3.org/2000/svg"
 width="1063.000000pt" height="939.000000pt" viewBox="0 0 1063.000000 939.000000"
 preserveAspectRatio="xMidYMid meet">
<metadata>
Created by potrace 1.16, written by Peter Selinger 2001-2019
</metadata>
<g transform="translate(0.000000,939.000000) scale(0.100000,-0.100000)"
fill="#000000" stroke="none">
<path d="M3396 9332 c-40 -53 -50 -60 -100 -72 -43 -10 -63 -22 -90 -52 -19
-21 -40 -38 -47 -38 -21 0 -98 -64 -99 -83 0 -16 -121 -147 -136 -147 -3 0
-17 -9 -31 -20 -15 -12 -34 -18 -47 -15 -21 5 -41 -12 -180 -155 -61 -63 -135
-127 -173 -150 -18 -10 -41 -37 -52 -59 -21 -40 -29 -45 -93 -56 -37 -7 -37
-8 -40 -58 -3 -48 -6 -54 -40 -76 -37 -24 -49 -53 -27 -67 8 -4 2 -12 -16 -21
-21 -12 -25 -19 -20 -36 3 -12 12 -42 19 -67 9 -32 18 -45 30 -45 11 0 26 -15
37 -35 61 -116 67 -142 40 -167 -12 -10 -31 -27 -43 -37 l-21 -19 6 31 c4 20
1 34 -8 42 -8 7 -15 28 -15 48 0 32 -1 34 -17 20 -36 -29 -50 -12 -58 67 -4
41 -10 77 -14 80 -13 7 -42 -76 -48 -137 -5 -50 -2 -64 27 -120 18 -35 44 -73
59 -84 24 -21 25 -24 13 -56 -6 -19 -12 -60 -12 -92 0 -54 3 -61 36 -91 50
-46 56 -97 20 -160 -21 -35 -27 -59 -27 -103 0 -75 26 -176 60 -226 95 -144
138 -226 146 -281 3 -27 22 -84 42 -125 19 -41 52 -111 73 -155 83 -173 98
-212 104 -265 8 -61 26 -120 38 -120 21 0 26 62 31 360 4 292 6 333 25 401 12
42 33 98 46 125 24 48 61 173 77 264 28 155 39 222 39 247 0 47 43 149 89 213
35 48 50 61 80 66 20 4 63 20 96 37 l60 30 230 2 c201 2 240 5 310 24 44 12
115 28 157 36 42 8 95 23 117 34 22 12 46 21 54 21 7 0 35 14 60 31 55 36 167
85 314 135 96 34 110 36 171 29 37 -4 85 -6 107 -5 80 4 102 3 209 -13 60 -9
157 -17 215 -17 160 -1 236 -23 279 -83 57 -79 99 -134 124 -161 27 -28 41
-53 163 -294 57 -114 74 -138 114 -167 25 -19 61 -53 79 -77 18 -24 46 -61 63
-83 63 -82 139 -264 233 -555 23 -73 56 -140 67 -140 5 0 9 42 9 94 0 89 1 95
31 132 17 22 41 48 54 59 13 11 49 49 80 85 55 63 57 66 51 109 -5 34 -2 49
11 63 23 25 38 23 62 -10 15 -21 34 -32 73 -40 29 -7 67 -21 85 -31 34 -21 41
-46 47 -174 2 -37 10 -82 16 -98 8 -18 11 -52 7 -88 -8 -95 -29 -89 309 -90
311 -1 401 7 494 42 32 12 80 21 113 21 54 1 61 -2 87 -31 44 -49 46 -86 15
-236 -16 -73 -29 -148 -29 -167 -1 -32 1 -35 37 -41 49 -8 66 -23 50 -47 -8
-12 -22 -16 -53 -14 -33 2 -45 -2 -60 -20 -23 -28 -53 -136 -48 -174 3 -25 9
-30 64 -44 34 -8 68 -20 75 -25 31 -24 200 -92 438 -176 30 -10 59 -23 65 -28
27 -22 146 -41 321 -51 105 -5 289 -17 410 -24 196 -13 223 -13 243 0 16 11
20 19 14 27 -16 19 -42 118 -42 157 0 20 6 59 14 86 8 27 17 61 20 76 12 51
30 60 130 58 139 -3 136 -3 136 25 0 35 26 45 83 32 47 -12 57 -23 35 -45 -9
-9 -3 -15 25 -27 20 -8 45 -15 55 -15 34 0 39 -18 34 -123 -5 -111 -21 -156
-84 -230 -22 -26 -29 -40 -21 -48 6 -6 128 -12 334 -15 178 -2 372 -6 432 -9
l107 -4 0 1929 c0 1656 -2 1930 -14 1930 -15 0 -17 -10 -35 -160 -44 -354 -64
-506 -81 -598 -28 -153 -58 -345 -80 -507 -11 -77 -26 -183 -35 -235 -8 -52
-15 -128 -15 -169 0 -73 -3 -94 -40 -321 -22 -134 -48 -373 -52 -479 -4 -98 7
-107 152 -118 l105 -8 -3 -33 c-4 -57 -27 -89 -69 -97 -21 -4 -63 -15 -93 -25
-125 -42 -258 -32 -270 20 -10 41 -73 70 -155 70 -41 0 -80 7 -95 15 -14 8
-51 14 -82 15 -31 0 -68 5 -82 11 -20 9 -41 7 -103 -9 -64 -17 -99 -20 -193
-16 -197 8 -228 13 -234 40 -4 13 -17 31 -31 40 -23 15 -27 15 -58 -5 -19 -12
-50 -21 -69 -21 -44 0 -51 -7 -32 -35 15 -23 15 -127 1 -141 -3 -3 -32 -6 -64
-5 -32 1 -86 -4 -120 -11 -56 -10 -67 -9 -120 11 -31 12 -66 29 -75 38 -17 15
-17 17 4 34 26 24 107 25 168 4 23 -8 46 -15 50 -15 10 0 80 97 80 110 0 6
-29 10 -67 10 -38 1 -120 8 -183 17 -143 19 -346 22 -378 4 -18 -10 -34 -10
-78 0 -45 10 -62 10 -91 0 -47 -17 -133 -22 -133 -8 0 7 -4 7 -12 -1 -17 -17
-21 -16 -70 24 -74 62 -75 106 -4 148 42 25 46 25 81 10 28 -11 40 -12 51 -3
21 17 17 36 -21 105 -19 34 -35 67 -35 73 0 7 23 11 60 11 47 0 64 -4 80 -20
l20 -20 0 20 c0 11 -7 20 -15 20 -8 0 -15 5 -15 10 0 6 -15 24 -34 40 -26 24
-36 42 -45 90 -13 68 -10 77 47 124 17 15 32 34 32 41 0 18 -44 27 -75 15 -46
-18 -110 -12 -141 12 -56 44 -64 53 -64 70 0 23 16 23 47 -2 29 -23 77 -26
110 -7 17 9 176 120 192 133 2 2 -2 11 -9 20 -9 10 -10 18 -3 22 6 4 13 17 17
30 10 31 2 32 -103 4 -102 -28 -108 -12 -27 75 30 32 56 68 58 78 3 18 -2 20
-47 17 -27 -2 -55 -8 -62 -14 -16 -13 -33 -2 -33 23 0 25 -24 24 -59 -2 -15
-11 -47 -23 -70 -26 l-43 -6 7 74 7 75 -42 -4 c-27 -3 -47 1 -58 11 -9 8 -41
27 -69 41 -39 20 -54 33 -59 54 -18 84 -10 80 -117 66 -66 -8 -81 6 -73 68 3
26 9 71 12 98 4 28 11 53 15 56 12 7 11 24 -1 24 -5 0 -10 -6 -10 -14 0 -8 -7
-16 -15 -20 -8 -3 -15 -12 -15 -19 0 -23 -40 -67 -61 -67 -10 0 -24 9 -31 20
-23 36 -45 24 -59 -30 -7 -28 -20 -57 -29 -65 -15 -14 -19 -10 -44 35 -28 51
-44 115 -53 208 l-5 53 -50 -53 c-28 -29 -58 -61 -67 -71 -9 -10 -28 -21 -43
-24 -15 -3 -39 -19 -53 -35 -21 -23 -32 -28 -48 -23 -12 4 -38 7 -58 6 -20 -1
-63 6 -95 14 -32 8 -75 15 -96 15 -21 0 -55 9 -75 20 -62 33 -91 23 -79 -25 4
-15 18 -28 41 -36 22 -8 35 -20 35 -30 0 -20 -18 -27 -74 -28 -22 0 -54 -5
-72 -11 -24 -8 -39 -8 -56 1 -47 24 -88 73 -102 124 -13 44 -14 57 -1 99 12
40 12 56 1 104 -12 49 -40 118 -77 184 -5 10 -9 29 -9 42 0 28 -39 63 -79 73
-27 6 -129 89 -221 180 -30 30 -80 73 -111 96 -31 23 -77 59 -103 81 -29 24
-77 49 -128 67 l-81 29 -963 0 -963 0 -45 -58z"/>
<path d="M4880 7165 c-115 -25 -272 -77 -315 -104 -25 -16 -65 -53 -90 -84
-25 -30 -53 -58 -61 -61 -26 -10 -16 -44 15 -51 16 -3 35 -13 42 -22 26 -30
59 -146 59 -204 0 -32 4 -60 10 -64 5 -3 17 -30 26 -60 24 -74 48 -95 118
-101 62 -6 96 7 96 36 0 41 11 50 59 50 36 -1 42 -3 29 -11 -25 -14 -22 -46 4
-60 49 -26 472 -18 543 10 11 5 33 14 48 20 34 14 45 38 24 58 -21 21 -42 11
-62 -31 l-17 -35 -161 6 c-130 4 -168 9 -191 23 l-29 18 29 6 c75 15 223 36
261 36 23 0 45 5 48 10 3 6 18 10 33 10 15 0 36 7 46 15 11 9 29 12 43 9 19
-5 25 -2 30 15 7 26 57 29 84 5 15 -14 22 -13 76 8 l58 23 3 49 c3 45 0 52
-34 87 -21 22 -47 39 -57 39 -11 0 -54 11 -96 25 -42 14 -95 29 -118 35 -24 6
-43 15 -43 19 0 24 36 31 186 33 l159 3 3 49 c6 98 -44 169 -116 166 -15 -1
-38 -2 -52 -2 -37 -2 -221 21 -234 29 -19 12 -398 10 -456 -2z"/>
<path d="M3625 7000 c-99 -20 -309 -114 -521 -233 -122 -69 -145 -92 -151
-149 -4 -38 0 -47 27 -76 25 -26 35 -30 50 -22 26 14 56 12 90 -5 35 -18 32
-31 -20 -95 -20 -25 -40 -55 -44 -68 -11 -34 3 -81 29 -98 22 -15 29 -14 85 5
77 27 121 27 145 1 14 -16 31 -20 80 -20 33 0 65 4 70 9 38 35 236 93 249 73
8 -13 -31 -52 -52 -52 -9 0 -25 -12 -35 -26 -29 -39 -9 -54 72 -54 54 0 73 5
102 24 20 14 63 34 95 45 76 27 102 46 142 107 58 88 73 178 48 298 -9 44 -23
91 -31 105 -17 33 -41 90 -50 119 -3 12 -23 31 -43 42 -20 11 -49 30 -63 41
-44 35 -174 49 -274 29z"/>
<path d="M6669 6953 c-67 -83 -67 -82 -26 -198 14 -38 28 -92 31 -120 8 -57
24 -105 37 -105 5 0 11 12 14 28 3 15 11 43 16 62 18 58 28 220 17 275 -14 70
-56 98 -89 58z"/>
<path d="M6308 6553 c-2 -48 4 -127 12 -149 7 -17 14 -20 36 -16 16 3 40 -2
60 -13 32 -17 32 -19 32 -83 0 -63 -2 -68 -38 -104 -24 -24 -47 -38 -63 -38
-27 0 -30 -7 -42 -91 -4 -30 -3 -55 5 -69 12 -22 12 -22 41 11 17 19 45 57 64
85 19 28 54 69 79 91 49 43 51 49 61 164 5 65 5 67 -20 73 -15 4 -32 21 -44
45 -36 70 -67 99 -122 110 -27 6 -52 11 -54 11 -3 0 -6 -12 -7 -27z"/>
<path d="M1064 6366 c-10 -8 -19 -25 -19 -38 0 -16 -12 -29 -43 -46 -35 -19
-41 -27 -31 -38 10 -12 3 -14 -38 -14 -74 0 -86 -17 -77 -116 3 -44 12 -97 19
-120 9 -25 11 -63 8 -102 -6 -60 -5 -62 22 -72 16 -6 87 -9 168 -8 l141 3 17
82 c9 45 24 94 34 109 10 15 19 48 20 74 2 26 8 63 16 83 11 30 10 39 -4 60
-16 25 -63 41 -73 26 -13 -21 -25 -6 -24 29 3 56 2 60 -20 82 -24 24 -87 27
-116 6z"/>
<path d="M1915 6333 c-11 -3 -26 -10 -32 -15 -15 -12 -17 -64 -3 -73 31 -19
-30 -41 -64 -23 -16 9 -25 5 -49 -22 -23 -25 -27 -38 -22 -59 4 -14 7 -45 6
-68 -1 -24 6 -57 15 -75 11 -21 18 -61 20 -112 1 -43 6 -82 11 -87 12 -12 310
-16 322 -4 5 6 14 43 20 83 5 40 17 85 27 100 17 26 27 64 40 158 6 40 5 42
-39 73 -26 17 -58 31 -75 31 -22 0 -43 13 -81 50 -51 50 -57 52 -96 43z"/>
<path d="M2408 6324 c-10 -9 9 -72 32 -104 12 -17 25 -55 29 -86 11 -82 51
-100 51 -23 0 21 9 56 20 76 17 32 18 40 6 58 -7 11 -27 21 -45 23 -20 2 -35
11 -42 25 -17 31 -38 44 -51 31z"/>
<path d="M110 6239 c-25 -6 -60 -8 -78 -5 l-32 5 0 -199 0 -199 33 -6 c17 -3
88 -5 157 -3 l125 3 8 85 c5 60 13 93 27 112 12 16 20 43 20 66 0 22 5 54 11
71 17 48 -5 66 -84 67 -34 1 -80 4 -102 7 -22 3 -60 1 -85 -4z"/>
<path d="M4430 5633 c-8 -3 -28 -17 -43 -29 -33 -28 -59 -30 -77 -9 -18 21
-27 19 -34 -10 -6 -22 -10 -24 -34 -19 -15 4 -31 9 -37 13 -5 3 -17 4 -27 3
-9 -2 -19 2 -23 8 -13 21 -90 11 -137 -19 -102 -65 -101 -114 2 -168 82 -43
102 -72 98 -138 l-3 -50 35 1 c19 0 60 2 90 3 30 1 89 -1 130 -5 62 -5 84 -3
125 14 45 18 64 19 165 13 96 -6 123 -12 165 -34 91 -48 91 -48 -60 -41 -126
6 -150 4 -230 -16 -76 -19 -104 -21 -180 -16 -49 4 -104 7 -121 6 -27 0 -180
-77 -244 -122 -32 -24 -71 -23 -103 2 -18 14 -40 20 -76 20 -42 0 -56 -5 -86
-31 -82 -73 -129 -191 -104 -267 14 -45 27 -62 55 -72 35 -14 21 -56 -24 -71
-65 -22 -196 5 -219 45 -8 14 -66 27 -119 27 -17 -1 -40 8 -52 19 -12 11 -31
20 -44 20 -13 0 -43 19 -70 44 l-47 43 -17 -24 c-13 -20 -22 -24 -47 -20 -17
2 -56 -3 -85 -11 -43 -12 -60 -13 -90 -3 -25 8 -195 15 -537 21 -535 9 -872
18 -945 26 -50 5 -596 21 -985 29 -137 3 -283 7 -322 9 l-73 4 0 -54 c0 -36 4
-54 13 -55 30 -1 243 -7 477 -13 140 -4 354 -11 475 -16 121 -5 317 -12 435
-15 402 -11 615 -17 675 -21 33 -2 256 -5 495 -7 239 -2 463 -8 498 -12 55 -6
63 -10 68 -31 4 -17 -2 -37 -20 -64 -14 -22 -26 -53 -26 -70 0 -18 -6 -33 -15
-36 -8 -4 -15 -15 -15 -26 0 -21 -25 -74 -37 -80 -10 -4 -66 -94 -111 -178
-19 -36 -38 -67 -42 -70 -4 -3 -15 -21 -25 -40 -10 -19 -39 -71 -65 -115 -27
-44 -75 -132 -108 -195 l-59 -115 -74 -26 c-41 -14 -110 -44 -154 -66 -44 -22
-170 -85 -280 -140 -225 -112 -309 -157 -475 -251 -63 -36 -126 -72 -140 -80
-14 -7 -43 -25 -65 -38 -22 -13 -74 -41 -116 -63 -42 -22 -96 -53 -120 -69
-24 -17 -100 -62 -169 -102 -69 -40 -164 -97 -211 -126 -107 -67 -136 -69
-281 -19 -57 20 -146 42 -198 50 -53 9 -133 30 -182 49 -48 19 -100 37 -117
41 l-31 7 0 -1391 0 -1391 5200 0 5199 0 -5 83 c-11 149 -41 330 -76 457 -19
69 -40 143 -45 165 -6 22 -27 85 -48 140 -65 170 -103 296 -120 395 -9 52 -29
136 -45 185 -15 50 -36 124 -45 165 -25 109 -64 230 -84 259 -134 197 -156
242 -165 351 -7 71 -20 131 -66 299 -12 47 -20 105 -20 158 0 82 -3 98 -43
263 -20 84 -102 286 -142 347 -11 17 -31 50 -45 73 -13 22 -39 56 -57 75 -18
19 -33 41 -33 48 0 14 -132 170 -203 239 -65 63 -172 108 -259 108 -85 0 -282
27 -338 45 -58 20 -267 62 -395 81 -95 14 -149 19 -435 43 -257 22 -799 102
-950 141 -62 16 -142 29 -250 40 -151 15 -204 28 -228 53 -32 35 -82 126 -82
150 0 12 -16 42 -35 66 -19 24 -35 54 -35 67 0 22 1 23 98 19 102 -4 233 -15
267 -22 11 -2 126 -8 255 -13 129 -5 298 -14 376 -20 156 -12 579 -28 889 -35
110 -3 277 -9 370 -14 94 -6 237 -10 319 -11 82 0 168 -5 190 -11 25 -7 122
-12 251 -11 116 0 228 -4 250 -9 22 -5 175 -14 340 -20 365 -13 328 -12 400
-9 58 3 252 -5 403 -16 l72 -5 0 74 0 74 -37 7 c-58 9 -204 7 -262 -4 -42 -8
-60 -6 -99 9 -49 19 -47 19 -822 36 -532 12 -647 17 -690 26 -25 6 -90 12
-145 14 -629 16 -1392 43 -1615 56 -416 24 -504 29 -715 34 -121 3 -228 8
-238 11 -10 3 -29 -1 -41 -10 -32 -20 -36 -59 -40 -341 -3 -214 -7 -255 -36
-375 -6 -25 -15 -76 -21 -115 -6 -38 -26 -119 -45 -180 -19 -60 -40 -126 -46
-145 -5 -19 -21 -57 -34 -85 -12 -27 -35 -99 -49 -158 -25 -104 -26 -109 -10
-163 18 -61 39 -76 108 -76 32 -1 39 -5 53 -34 10 -21 14 -48 11 -71 -5 -41
-42 -146 -82 -230 -13 -29 -27 -65 -31 -80 -4 -16 -11 -34 -17 -41 -16 -21
-58 -112 -82 -182 -12 -36 -35 -99 -49 -140 -29 -80 -54 -171 -113 -398 -28
-106 -43 -146 -56 -154 -27 -14 -130 16 -185 54 -56 38 -224 95 -321 108 -87
11 -150 25 -159 35 -4 4 -38 35 -76 69 -39 33 -106 95 -151 136 -44 41 -105
95 -135 120 -30 25 -71 61 -93 81 -21 20 -50 42 -65 49 -15 7 -41 19 -57 26
-41 20 -146 120 -174 167 -13 21 -35 44 -51 52 -28 14 -57 78 -65 140 -2 17
-10 63 -18 104 -9 51 -11 89 -5 122 7 40 5 61 -17 126 -14 42 -25 99 -25 125
0 27 -4 56 -10 66 -5 9 -17 34 -26 55 -9 21 -30 51 -45 67 -16 16 -29 35 -29
43 0 8 -9 22 -20 32 -14 12 -17 22 -11 33 5 9 5 27 -1 41 -15 40 -12 97 6 122
29 42 16 99 -14 59 -11 -14 -22 -19 -34 -14 -19 7 -19 21 5 120 11 44 10 57
-4 93 -15 36 -15 42 -3 47 24 9 36 -5 36 -43 0 -27 3 -34 15 -29 28 10 114 18
138 12 13 -3 59 -39 101 -81 69 -66 83 -75 116 -75 57 0 98 -22 120 -63 11
-20 20 -44 20 -52 0 -13 6 -11 29 6 23 16 38 20 62 15 30 -6 115 -65 132 -92
4 -7 23 -18 42 -24 19 -6 40 -20 45 -31 7 -12 21 -19 38 -19 18 0 37 -11 55
-32 l28 -31 -27 -28 c-27 -28 -25 -49 4 -49 27 0 60 -28 64 -52 2 -18 12 -24
48 -31 39 -8 103 -44 120 -69 10 -14 84 -35 147 -43 64 -7 167 12 209 40 34
22 37 53 6 67 -15 7 -31 23 -37 35 -7 17 -21 23 -65 28 -72 8 -166 40 -162 54
1 6 -5 11 -13 11 -8 0 -15 5 -15 10 0 6 7 10 15 10 18 0 85 41 104 63 7 9 29
19 50 23 110 18 133 36 125 98 -5 36 -3 45 21 66 14 14 32 31 38 38 7 8 21 24
33 35 12 12 29 47 39 77 23 72 65 164 76 168 17 7 9 22 -10 22 -11 0 -21 6
-24 13 -6 18 13 67 27 67 17 0 53 39 65 73 6 15 22 32 36 39 14 6 25 15 25 19
0 14 101 126 126 140 14 7 32 26 41 42 8 16 49 64 92 106 42 42 82 89 89 104
7 16 21 31 31 34 22 6 35 66 20 95 -11 21 -25 12 -48 -30 -6 -12 -19 -22 -27
-22 -23 0 -84 -47 -124 -96 -19 -23 -56 -54 -83 -69 -26 -15 -57 -40 -69 -56
-12 -16 -30 -32 -41 -35 -11 -3 -43 -29 -72 -58 -103 -100 -179 -155 -256
-182 -117 -41 -214 -57 -279 -44 -47 9 -69 7 -151 -14 -52 -13 -105 -29 -117
-35 -16 -8 -58 -8 -166 0 -104 8 -154 8 -178 0 -60 -19 -159 -16 -203 7 -66
34 -167 128 -216 201 -25 38 -60 81 -78 96 -24 21 -31 34 -27 49 3 14 -5 38
-24 66 -35 52 -37 76 -10 110 11 14 20 30 20 37 0 14 31 33 55 33 9 0 48 28
86 62 47 42 88 69 127 83 32 12 75 31 94 43 58 36 271 92 348 92 20 0 61 7 91
16 66 20 223 22 296 5 29 -7 77 -11 106 -8 57 5 290 -15 320 -28 22 -9 61 25
88 77 24 48 24 58 -5 123 -30 63 -41 68 -201 85 -60 7 -156 21 -212 31 -98 18
-106 22 -175 74 -40 31 -83 58 -95 61 -39 10 -30 55 17 93 22 17 40 40 40 51
0 52 -242 122 -320 93z"/>
<path d="M4495 4731 c-143 -39 -150 -43 -149 -77 1 -17 10 -44 20 -59 11 -16
24 -43 29 -59 10 -29 14 -31 53 -29 26 1 69 16 114 39 40 21 87 44 103 52 17
8 44 27 60 42 17 15 40 33 53 39 28 15 28 37 0 52 -40 22 -204 22 -283 0z"/>
</g>
</svg>
